<svg xmlns="http://www.w3.org/2000/svg" width="129" height="129" viewBox="0 0 129 129">
  <g id="Groupe_148" data-name="Groupe 148" transform="translate(-116 -120)">
    <g id="Logo">
      <g id="Logo-2" data-name="Logo">
        <g id="Ellipse_2" data-name="Ellipse 2" transform="translate(174 132)" fill="#e20055" stroke="#283b40" stroke-width="1">
          <circle cx="6" cy="6" r="6" stroke="none"/>
          <circle cx="6" cy="6" r="5.5" fill="none"/>
        </g>
        <line id="Ligne_1" data-name="Ligne 1" y2="41" transform="translate(180.5 162.5)" fill="none" stroke="#e20055" stroke-width="3"/>
        <path id="Tracé_61156" data-name="Tracé 61156" d="M891.526-447.963h-6.7l-.855.213-.943.4-1.692.884-1.756.884-1.68,1.149-.973.8-.972.8-1.286,1.506-1.333,2-1.667,2.667-1,2L870-432.333l-.333,2-.333,2.54v2.46l.333,3,.667,2.333,1,2.667,1,2.333,1.333,2.333L875.333-411l2,2L879-407.333,881.333-406l2.333,1.333,2.667,1h2.333l2,.333,2.271.365,1.688-.365,1.042-.333,2.667-.333L901-405.667,903.667-407l2.667-1.667,2-2.333,1.333-3" transform="translate(-712 628)" fill="none" stroke="#e20055" stroke-width="3"/>
        <line id="Ligne_2" data-name="Ligne 2" x1="16" y2="17" transform="translate(158.5 209.5)" fill="none" stroke="#fff" stroke-width="3"/>
        <path id="Tracé_61157" data-name="Tracé 61157" d="M903.324-428.8l.99-.441-2.284,1.017-.914.407-1.218.542-1.073.478-1.743.776-2.208.983-1.9.847-1.6.712-1.218.542-.9.855-.626.643-.456,1.024-.454,1.023-.417.915-.114.872.057,1.252.162,1.387.547,1.23.918,1.037.96,1.032.86.8,1.128.683,1.548.5,1.581.391,1.371.211,1.421-.086,2.362-.637,2.908-1.071,2.42-1.078,2.292-1.02,3.2-1.424" transform="matrix(-0.914, -0.407, 0.407, -0.914, 1182.301, 155.941)" fill="none" stroke="#e20055" stroke-width="3"/>
        <line id="Ligne_3" data-name="Ligne 3" y2="16" transform="translate(178.5 162.5)" fill="none" stroke="#707070" stroke-width="1"/>
        <line id="Ligne_4" data-name="Ligne 4" y2="19" transform="translate(182.5 162.5)" fill="none" stroke="#707070" stroke-width="1"/>
        <path id="Tracé_61158" data-name="Tracé 61158" d="M891.526-447.963h-5.807l-1.031.213-1.062.375-.812.438-1.562.813-1.687.875-1.625,1.125-1.062.875-1.062.813-1.125,1.188-1.354,1.917-1.667,2.667-1,2-.979,2.1L869-430.437v8.375l.25,1.375.438,1.75.5,1.813.479,1.563.521,1.188.479,1.25.583,1.063.625,1.063.458.813.667.813.688.708.813.792.938.875,2,2,.75.625.813.708.875.6,1.063.688,1,.5.938.438.813.313.875.313.813.25.75.25,1.313.25,1.188.25,1.063.25,1.688.25h3.063l1.25-.25,1.125-.25,1-.25.75-.25,1-.5.688-.312.625-.312.875-.437.938-.5.813-.437,1.233-.729h0l.642-.458.773-.54.74-.516.8-.694.755-.755.679-.679.629-.692.438-.792.438-1.083.438-.937.125-.312-2.811-1.627-.689,1.159-.469.736-.33.7-.42.656-.32.531-.4.438-.562.531-.454.469-.577.531-.531.37-.781.567-.906.5-.75.381-.75.306-.875.344-.719.25-.719.281-.687.125-.844.208-.75.135-.781.125-.875.188-.562.125h-5.25l-.75-.125-.75-.187-.812-.26-.781-.333-.75-.281-.656-.25-.625-.344-.75-.437-.719-.437-.437-.312-.469-.375-.531-.406-.375-.312-2.406-2.344-.719-.594-.969-.906-.539-.562-.4-.625-.437-.687-.5-1-.312-.781-.219-.625-.156-.406-.312-.781-.312-.937-.354-1.062-.208-.594-.152-.512-.255-.738-.187-.75-.156-.594-.125-.781v-5.5l.125-1.062.344-1.219.255-1.031.36-.812.385-.812.469-.812.5-.906.406-.719.531-1,.719-.937.531-.719.656-.719.563-.594.625-.656.625-.562.656-.594.719-.469.969-.531.906-.469.625-.344.67-.348.955-.5.5-.219.625-.281h.719l9.313-.031" transform="translate(-713 626)" fill="none" stroke="#707070" stroke-width="1"/>
      </g>
    </g>
    <g id="Ellipse_4" data-name="Ellipse 4" transform="translate(116 120)" fill="none" stroke="#fff" stroke-width="3">
      <circle cx="64.5" cy="64.5" r="64.5" stroke="none"/>
      <circle cx="64.5" cy="64.5" r="63" fill="none"/>
    </g>
  </g>
</svg>
